<?xml version="1.0" encoding="utf-8"?>
<!-- Generator: Adobe Illustrator 22.0.0, SVG Export Plug-In . SVG Version: 6.00 Build 0)  -->
<svg version="1.1" id="Layer_1" xmlns="http://www.w3.org/2000/svg" xmlns:xlink="http://www.w3.org/1999/xlink" x="0px" y="0px"
	 viewBox="0 0 335.7 334.8" style="enable-background:new 0 0 335.7 334.8;" xml:space="preserve">
<style type="text/css">
	.st0{fill:#FFFFFF;}
</style>
<path d="M0,334.5c0-2.2,0-4.1,0-5.9c0-53.2,0-106.3,0-159.5C0,88.2,54.3,20.9,133.3,3.7c71.1-15.5,147.6,19.6,181.3,84.2
	c27.9,53.5,28.4,107.8-0.9,160.5c-29,52.3-74.9,80.8-134.7,85.8c-10.7,0.9-21.6,0.3-32.4,0.3c-20.7,0.1-41.3,0.3-62,0.3
	c-26.3,0.1-52.6,0-79,0C3.9,334.8,2.1,334.6,0,334.5z M18,316.7c2,0.1,3.5,0.3,5,0.3c47.5,0.1,94.9,0.5,142.4,0.2
	c37.2-0.2,70.7-11.7,99.2-36.1c48.4-41.4,65-107.4,43.1-165.1c-25.5-67-91.5-106.2-160.4-96.5C72.8,29.9,18.1,92.9,18,168.1
	c0,47.5,0,95,0,142.4C18,312.4,18,314.2,18,316.7z"/>
<path class="st0" d="M18,316.7c0-2.4,0-4.3,0-6.1c0-47.5,0-95,0-142.4c0-75.3,54.8-138.3,129.3-148.7
	c68.8-9.7,134.9,29.5,160.4,96.5c22,57.7,5.3,123.7-43.1,165.1c-28.6,24.4-62,35.9-99.2,36.1C118,317.4,70.5,317.1,23,317
	C21.6,317,20.1,316.8,18,316.7z M142.4,158.1c0,27,0,53.4,0,80.3c-5.5,0-10.6,0-15.7,0c0,9.6,0,18.6,0,27.7c24.8,0,49.2,0,73.8,0
	c0-9.4,0-18.5,0-28.1c-5.5,0-10.8,0-16.1,0c0-26.8,0-53.1,0-79.9c5.5,0,10.7,0,16,0c0-9.7,0-18.7,0-27.8c-24.8,0-49.2,0-73.7,0
	c0,9.4,0,18.5,0,27.8C132.1,158.1,137.1,158.1,142.4,158.1z M189.1,86.8c0.1-14.5-10.7-25.8-25.1-26.1c-14.1-0.3-25.9,11.2-26,25.4
	c-0.1,14.2,11.4,26,25.5,26C177.4,112.1,189,100.7,189.1,86.8z"/>
<path d="M142.4,158.1c-5.3,0-10.3,0-15.7,0c0-9.4,0-18.4,0-27.8c24.5,0,48.9,0,73.7,0c0,9.1,0,18.1,0,27.8c-5.3,0-10.5,0-16,0
	c0,26.9,0,53.1,0,79.9c5.3,0,10.5,0,16.1,0c0,9.7,0,18.7,0,28.1c-24.6,0-49,0-73.8,0c0-9.1,0-18.2,0-27.7c5.1,0,10.2,0,15.7,0
	C142.4,211.5,142.4,185.1,142.4,158.1z"/>
<path d="M189.1,86.8c-0.1,13.9-11.7,25.3-25.7,25.3c-14.1,0-25.6-11.8-25.5-26c0.1-14.2,11.9-25.7,26-25.4
	C178.4,61,189.2,72.3,189.1,86.8z"/>
</svg>
